<?xml version="1.0" encoding="UTF-8" standalone="no"?>
<!DOCTYPE svg PUBLIC "-//W3C//DTD SVG 1.1//EN" "http://www.w3.org/Graphics/SVG/1.1/DTD/svg11.dtd">
<svg width="100%" height="100%" viewBox="0 0 290 513" version="1.1" xmlns="http://www.w3.org/2000/svg" xmlns:xlink="http://www.w3.org/1999/xlink" xml:space="preserve" xmlns:serif="http://www.serif.com/" style="fill-rule:evenodd;clip-rule:evenodd;">
    <g transform="matrix(1.34884,0,0,1.34884,145,256.255)">
        <g transform="matrix(1,0,0,1,-107.5,-107.5)">
            <clipPath id="_clip1">
                <rect x="0" y="0" width="215" height="215"/>
            </clipPath>
            <g clip-path="url(#_clip1)">
                <g transform="matrix(1,0,0,1,2,2)">
                    <g id="Page-1">
                        <g id="Homepage---TikTok---V4">
                            <g id="TikTok">
                                <g id="Tik-Tok">
                                    <circle id="Oval" cx="105.5" cy="105.5" r="105.5" style="fill:white;stroke:rgb(26,26,26);stroke-width:2.7px;"/>
                                    <g id="Group-72" transform="matrix(1,0,0,1,11,11)">
                                        <path id="Fill-1" d="M45.734,17.372L42.008,19.623L40.383,16.936L51.044,10.498L52.669,13.183L48.907,15.455L55.027,25.571L51.855,27.485L45.734,17.372Z" style="fill:rgb(29,29,27);"/>
                                        <path id="Fill-2" d="M54.599,8.955L57.985,7.455L64.049,21.124L60.663,22.624L54.599,8.955Z" style="fill:rgb(29,29,27);"/>
                                        <path id="Fill-3" d="M62.32,5.54L65.882,4.513L67.386,9.719L70.833,3.085L75.058,1.867L71.211,9.227L79.534,16.15L75.387,17.346L69.447,12.326L68.606,13.942L70.035,18.89L66.474,19.917L62.32,5.54Z" style="fill:rgb(29,29,27);"/>
                                        <path id="Fill-4" d="M91.173,0L78.784,1.244L79.098,4.364L83.429,3.928L84.611,15.683L88.296,15.312L87.114,3.559L91.489,3.122L91.173,0Z" style="fill:rgb(29,29,27);"/>
                                        <path id="Fill-5" d="M104.901,8.173C105.108,5.46 104.077,3.284 101.656,3.098C99.254,2.914 97.865,4.906 97.656,7.618C97.448,10.331 98.521,12.491 100.923,12.674C103.346,12.858 104.693,10.884 104.901,8.173M93.899,7.333C94.239,2.868 97.353,-0.231 101.863,0.115C106.395,0.459 109,3.996 108.66,8.458C108.317,12.923 105.203,16.022 100.672,15.676C96.162,15.332 93.556,11.795 93.899,7.333" style="fill:rgb(29,29,27);"/>
                                        <path id="Fill-7" d="M113.909,1.917L117.476,2.914L116.016,8.129L122.433,4.298L126.666,5.481L119.527,9.719L122.961,19.967L118.808,18.808L116.398,11.426L114.832,12.358L113.449,17.311L109.88,16.315L113.909,1.917Z" style="fill:rgb(29,29,27);"/>
                                        <path id="Fill-9" d="M140.804,20.883C142.156,18.527 142.161,16.12 140.054,14.915C137.969,13.721 135.858,14.922 134.505,17.278C133.154,19.638 133.197,22.045 135.285,23.239C137.39,24.444 139.453,23.241 140.804,20.883M131.241,15.409C133.466,11.528 137.603,10.07 141.524,12.312C145.463,14.567 146.297,18.871 144.072,22.752C141.847,26.633 137.708,28.093 133.768,25.838C129.848,23.596 129.016,19.29 131.241,15.409" style="fill:rgb(29,29,27);"/>
                                        <path id="Fill-11" d="M151.524,19.075L160.022,26.268L158.005,28.644L152.335,23.845L150.375,26.161L155.117,30.175L153.182,32.457L148.437,28.443L144.675,32.879L141.849,30.485L151.524,19.075Z" style="fill:rgb(29,29,27);"/>
                                        <path id="Fill-13" d="M163.073,29.389L170.288,37.864L167.913,39.883L163.098,34.229L160.786,36.193L164.815,40.921L162.535,42.861L158.508,38.13L154.073,41.897L151.675,39.077L163.073,29.389Z" style="fill:rgb(29,29,27);"/>
                                        <path id="Fill-15" d="M172.492,41.23L174.523,44.328L162.002,52.521L159.974,49.426L172.492,41.23Z" style="fill:rgb(29,29,27);"/>
                                        <path id="Fill-17" d="M170.008,50.916C174.033,48.999 178.328,50.176 180.246,54.201C180.993,55.768 181.169,57.304 180.892,58.62C180.562,60.214 179.563,61.524 178.132,62.413L176.539,59.069C177.666,58.324 178.142,56.939 177.458,55.504C176.414,53.313 174.086,53.146 171.629,54.315C169.151,55.492 167.95,57.595 168.904,59.596C169.615,61.09 171.028,61.621 172.405,61.153L173.998,64.495C172.611,65.039 171.094,65.018 169.764,64.516C168.268,63.954 167.08,62.828 166.171,60.921C164.281,56.954 165.961,52.84 170.008,50.916" style="fill:rgb(29,29,27);"/>
                                        <path id="Fill-19" d="M183.96,64.151L185.081,67.678L170.817,72.202L169.696,68.675L183.96,64.151Z" style="fill:rgb(29,29,27);"/>
                                        <path id="Fill-21" d="M178.351,81.581L181.725,79.857C182.446,79.48 183.708,78.923 183.708,78.923L183.704,78.881C183.704,78.881 182.322,78.758 181.517,78.642L177.757,78.121L178.351,81.581ZM187.208,76.434L187.853,80.184L174.027,88.029L173.366,84.198L175.876,82.876L174.991,77.727L172.186,77.339L171.556,73.672L187.208,76.434Z" style="fill:rgb(29,29,27);"/>
                                        <path id="Fill-23" d="M189,89.796L188.939,93.498L177.107,93.302L176.995,100.016L173.855,99.965L174.03,89.547L189,89.796Z" style="fill:rgb(29,29,27);"/>
                                        <path id="Fill-25" d="M180.756,107.009C185.104,108 187.746,111.58 186.756,115.925C186.37,117.617 185.553,118.933 184.522,119.794C183.273,120.84 181.677,121.249 180.002,121.062L180.826,117.451C182.173,117.566 183.407,116.773 183.759,115.221C184.297,112.856 182.573,111.283 179.92,110.681C177.244,110.072 175,110.977 174.508,113.141C174.138,114.75 174.921,116.044 176.291,116.527L175.469,120.136C174.043,119.707 172.865,118.752 172.132,117.533C171.305,116.164 171.072,114.548 171.542,112.487C172.519,108.203 176.388,106.016 180.756,107.009" style="fill:rgb(29,29,27);"/>
                                        <path id="Fill-27" d="M174.648,122.646L183.523,126.526L182.036,129.917L173.048,125.984C171.706,125.397 170.503,125.694 169.772,127.359C169.085,128.93 169.715,130.095 171.057,130.683L179.99,134.588L178.502,137.977L169.63,134.096C166.467,132.712 165.382,129.977 167.053,126.169C168.731,122.338 171.447,121.246 174.648,122.646" style="fill:rgb(29,29,27);"/>
                                        <path id="Fill-29" d="M167.826,136.221L165.732,139.297C164.392,138.59 163.321,139.05 162.32,140.52C161.638,141.524 161.332,142.756 162.266,143.391C163.254,144.06 164.141,143.197 165.711,141.786C167.671,139.984 169.87,138.162 172.465,139.925C175.113,141.724 174.816,144.655 172.934,147.422C171.11,150.103 168.488,151.354 165.808,149.713L167.845,146.72C168.878,147.247 169.91,146.884 170.684,145.743C171.415,144.671 171.43,143.644 170.735,143.174C169.87,142.589 169.017,143.397 167.342,144.967C165.243,146.901 163.121,148.494 160.474,146.698C157.876,144.935 157.946,141.744 159.886,138.892C162.12,135.607 165.045,134.434 167.826,136.221" style="fill:rgb(29,29,27);"/>
                                        <path id="Fill-31" d="M161.783,156.071L164.79,152.928L167.059,155.093L158.455,164.089L156.186,161.919L159.222,158.746L150.675,150.583L153.235,147.908L161.783,156.071Z" style="fill:rgb(29,29,27);"/>
                                        <path id="Fill-33" d="M142.678,166.766C144.278,168.964 146.475,169.955 148.437,168.529C150.385,167.114 150.153,164.695 148.553,162.497C146.95,160.299 144.733,159.35 142.786,160.765C140.822,162.191 141.075,164.568 142.678,166.766M151.598,160.282C154.234,163.902 153.872,168.278 150.216,170.934C146.541,173.603 142.265,172.599 139.629,168.979C136.995,165.361 137.357,160.986 141.032,158.316C144.687,155.658 148.966,156.664 151.598,160.282" style="fill:rgb(29,29,27);"/>
                                        <path id="Fill-35" d="M139.775,177.567L135.219,179.584L130.9,174.337C130.27,173.586 128.733,171.566 128.733,171.566L128.696,171.585C128.696,171.585 129.161,174.076 129.311,175.038L130.282,181.769L125.689,183.802L119.626,170.133L122.726,168.758L125.779,175.641C126.024,176.196 126.934,178.4 126.934,178.4L126.972,178.385C126.972,178.385 126.544,176.128 126.477,175.561L125.309,167.617L128.103,166.377L133.184,172.57C133.557,173 134.952,174.852 134.952,174.852L134.99,174.835C134.99,174.835 133.959,172.661 133.711,172.108L130.668,165.244L133.709,163.898L139.775,177.567Z" style="fill:rgb(29,29,27);"/>
                                        <path id="Fill-37" d="M114.72,176.301L111.043,176.903C110.635,175.447 109.562,174.989 107.805,175.276C106.608,175.472 105.503,176.101 105.687,177.213C105.879,178.39 107.118,178.44 109.223,178.603C111.884,178.78 114.716,179.119 115.228,182.212C115.745,185.37 113.412,187.173 110.11,187.715C106.909,188.242 104.195,187.205 103.54,184.135L107.113,183.549C107.444,184.659 108.414,185.154 109.777,184.931C111.058,184.72 111.813,184.024 111.676,183.199C111.509,182.168 110.331,182.108 108.039,181.975C105.189,181.788 102.572,181.349 102.052,178.193C101.542,175.097 103.902,172.95 107.309,172.391C111.233,171.745 114.099,173.055 114.72,176.301" style="fill:rgb(29,29,27);"/>
                                        <path id="Fill-39" d="M88.728,181.104C88.659,183.823 89.799,185.945 92.23,186.004C94.635,186.065 95.924,184.004 95.992,181.285C96.061,178.566 94.875,176.465 92.469,176.404C90.039,176.343 88.794,178.384 88.728,181.104M99.762,181.38C99.648,185.856 96.696,189.109 92.176,188.997C87.632,188.885 84.847,185.487 84.96,181.009C85.07,176.533 88.022,173.28 92.566,173.392C97.088,173.505 99.873,176.902 99.762,181.38" style="fill:rgb(29,29,27);"/>
                                        <path id="Fill-41" d="M82.292,178.404L80.193,187.862L76.575,187.06L78.699,177.48C79.016,176.051 78.495,174.929 76.716,174.535C75.039,174.164 74.015,175.009 73.697,176.438L71.587,185.957L67.969,185.154L70.066,175.697C70.814,172.328 73.292,170.732 77.359,171.634C81.449,172.539 83.047,174.993 82.292,178.404" style="fill:rgb(29,29,27);"/>
                                        <path id="Fill-43" d="M63.007,183.574L59.585,182.097L58.491,173.443C58.447,172.968 58.305,171.287 58.305,171.287L58.267,171.27C58.267,171.27 57.591,172.939 57.384,173.42L54.567,179.931L51.242,178.495L57.18,164.761L60.602,166.241L61.7,174.782C61.772,175.246 61.883,177.048 61.883,177.048L61.921,177.065C61.921,177.065 62.648,175.282 62.855,174.801L65.62,168.405L68.945,169.84L63.007,183.574Z" style="fill:rgb(29,29,27);"/>
                                        <path id="Fill-45" d="M48.414,162.826C46.41,161.455 44.511,162.006 42.964,164.269C41.426,166.513 41.523,168.707 43.441,170.017L45.272,171.268L50.211,164.054L48.414,162.826ZM46.581,175.915L41.312,172.312C37.89,169.975 37.281,165.936 39.871,162.154C41.359,159.979 43.312,158.755 45.417,158.648C46.88,158.584 48.395,159.036 49.952,160.099L55.031,163.571L46.581,175.915Z" style="fill:rgb(29,29,27);"/>
                                        <path id="Fill-47" d="M29.312,152.489C28.412,151.498 27.318,151.473 26.433,152.276C25.55,153.076 25.529,154.139 26.414,155.116L28.254,157.145L31.154,154.517L29.312,152.489ZM28.475,162.026L23.949,157.039C22.725,155.691 22.198,154.36 22.23,153.088C22.25,151.774 22.832,150.513 23.949,149.503C26.073,147.579 28.911,147.69 30.977,149.966L33.324,152.553L37.031,149.197L39.561,151.985L28.475,162.026Z" style="fill:rgb(29,29,27);"/>
                                        <path id="Fill-49" d="M22.298,138.817L19.866,141.722C19.35,142.351 18.404,143.359 18.404,143.359L18.427,143.393C18.427,143.393 19.746,142.969 20.532,142.76L24.201,141.771L22.298,138.817ZM16.156,147.015L14.095,143.817L23.758,131.19L25.862,134.461L24.07,136.659L26.9,141.055L29.633,140.315L31.65,143.445L16.156,147.015Z" style="fill:rgb(29,29,27);"/>
                                        <path id="Fill-51" d="M12.994,126.937C12.444,125.581 11.521,125.144 10.472,125.566C9.466,125.976 9.013,126.925 9.547,128.243L10.626,130.899L14.041,129.515L12.994,126.937ZM9.306,135.43L6.613,128.802C5.496,126.049 6.061,123.383 8.641,122.337C10.252,121.683 11.759,121.999 12.973,123.381L13.032,123.356C12.952,121.989 13.455,121.063 14.754,120.312C16.46,119.282 18.283,118.766 18.262,118.211L18.435,118.141L19.79,121.474C19.725,121.928 18.073,122.533 16.781,123.303C15.573,123.997 15.143,124.938 15.74,126.412L16.583,128.484L21.781,126.378L23.176,129.81L9.306,135.43Z" style="fill:rgb(29,29,27);"/>
                                        <path id="Fill-53" d="M5.662,115.259L6.568,119.512L3.496,120.167L0.904,107.996L3.976,107.343L4.891,111.639L16.459,109.18L17.229,112.799L5.662,115.259Z" style="fill:rgb(29,29,27);"/>
                                        <path id="Fill-55" d="M0.356,103.481L0.251,99.758L7.645,95.117C8.058,94.873 9.521,94.037 9.521,94.037L9.52,93.997C9.52,93.997 7.721,94.088 7.2,94.101L0.101,94.299L0,90.681L14.97,90.264L15.073,93.989L7.784,98.587C7.392,98.847 5.803,99.71 5.803,99.71L5.805,99.75C5.805,99.75 7.731,99.655 8.252,99.64L15.225,99.448L15.326,103.066L0.356,103.481Z" style="fill:rgb(29,29,27);"/>
                                        <path id="Fill-58" d="M0.395,85.503L2.11,74.292L5.134,74.754L3.979,82.303L6.628,82.708L7.619,76.234L10.476,76.669L9.484,83.145L12.653,83.63L13.829,75.956L16.933,76.43L15.198,87.764L0.395,85.503Z" style="fill:rgb(29,29,27);"/>
                                        <path id="Fill-60" d="M11.647,65.524C12.122,64.137 11.713,63.2 10.644,62.835C9.614,62.481 8.649,62.903 8.188,64.248L7.256,66.959L10.741,68.155L11.647,65.524ZM3.28,69.513L5.604,62.744C6.571,59.935 8.75,58.293 11.384,59.196C13.028,59.76 13.957,60.985 13.968,62.824L14.027,62.844C14.863,61.761 15.854,61.392 17.327,61.677C19.291,62.017 21.006,62.825 21.354,62.394L21.531,62.455L20.363,65.858C20.017,66.159 18.372,65.529 16.893,65.263C15.523,64.995 14.581,65.423 14.065,66.927L13.337,69.045L18.644,70.865L17.442,74.365L3.28,69.513Z" style="fill:rgb(29,29,27);"/>
                                        <path id="Fill-62" d="M25.701,42.632C24.371,41.55 24.163,39.548 25.248,38.219C26.331,36.888 28.335,36.685 29.665,37.767C30.995,38.849 31.203,40.851 30.118,42.18C29.035,43.509 27.031,43.714 25.701,42.632" style="fill:rgb(29,29,27);"/>
                                        <path id="Fill-65" d="M111.532,46.534C111.526,47.777 111.688,49.112 111.892,50.333L100.1,50.333L100.1,108.997C100.1,111.699 99.822,114.108 99.266,116.218C94.465,126.796 80.867,125.413 77.11,118.156C82.705,121.656 91.903,120.728 95.677,112.419C96.227,110.312 96.505,107.9 96.505,105.196L96.505,46.534L111.532,46.534ZM119.554,64.274C122.593,66.7 126.786,68.491 132.564,68.833L132.564,72.203C126.169,71.022 122.117,67.848 119.554,64.274ZM65.594,128.705C46.353,112.022 58.798,74.882 88.38,79.555L88.38,82.995C63.398,81.833 52.401,111.607 65.594,128.705Z" style="fill:rgb(106,196,207);"/>
                                        <path id="Fill-67" d="M115.127,50.333L115.127,50.409C115.13,51.766 115.53,71.406 136.158,72.632C136.158,90.903 136.168,72.632 136.168,87.806C134.619,87.899 122.589,87.03 115.102,80.36L115.081,109.9C115.266,123.278 107.811,136.396 93.857,139.039C89.95,139.78 86.429,139.862 80.518,138.573C46.478,128.401 57.79,77.956 91.971,83.354C91.971,99.64 91.981,83.349 91.981,99.64C77.859,97.564 73.137,109.301 76.889,117.703C80.303,125.353 94.363,127.013 99.266,116.218C99.821,114.108 100.099,111.699 100.099,108.997L100.099,50.333L115.127,50.333Z" style="fill:rgb(2,3,3);"/>
                                        <path id="Fill-69" d="M115.127,50.333L115.127,50.409C115.127,51.207 115.269,58.298 119.553,64.274C114.39,60.146 112.55,54.183 111.893,50.333L115.127,50.333ZM132.563,72.203C133.688,72.408 134.887,72.556 136.158,72.632C136.158,90.903 136.168,72.632 136.168,87.806C134.619,87.899 122.589,87.03 115.102,80.36L115.081,109.9C115.266,123.278 107.811,136.396 93.857,139.039C89.95,139.78 86.429,139.862 80.518,138.573C73.866,136.584 68.954,133.055 65.595,128.705C68.589,131.302 72.346,133.405 76.93,134.778C82.832,136.063 86.355,135.98 90.264,135.24C104.218,132.597 111.67,119.477 111.49,106.107L111.509,76.561C118.994,83.231 131.024,84.104 132.578,84.007C132.578,69.913 132.563,84.664 132.563,72.203ZM88.38,82.995C89.546,83.046 90.743,83.16 91.971,83.354C91.971,99.64 91.981,83.349 91.981,99.64C77.859,97.564 73.137,109.301 76.889,117.703C76.957,117.857 77.031,118.009 77.109,118.156C75.431,117.106 74.081,115.665 73.295,113.904C69.546,105.502 74.264,93.765 88.385,95.841C88.385,80.915 88.38,93.335 88.38,82.995Z" style="fill:rgb(229,34,84);"/>
                                    </g>
                                </g>
                            </g>
                        </g>
                    </g>
                </g>
            </g>
        </g>
    </g>
</svg>
